<svg version="1.1" id="Layer_1" xmlns="http://www.w3.org/2000/svg" xmlns:xlink="http://www.w3.org/1999/xlink" x="0px" y="0px"
	 width="100%" viewBox="0 0 500 500" enable-background="new 0 0 500 500" xml:space="preserve">
<path fill="#212C95" opacity="1.000000" stroke="none" 
	d="
M316.000000,501.000000 
	C210.666687,501.000000 105.833382,501.000000 1.000056,501.000000 
	C1.000037,334.333405 1.000037,167.666794 1.000019,1.000146 
	C167.666565,1.000097 334.333130,1.000097 500.999756,1.000049 
	C500.999847,167.666519 500.999847,334.333038 500.999939,500.999786 
	C439.500000,501.000000 378.000000,501.000000 316.000000,501.000000 
M38.961090,356.898285 
	C40.431995,357.597687 41.902100,358.906982 43.373913,358.908905 
	C112.555710,358.999725 181.737640,358.976959 251.866165,359.010010 
	C320.346954,359.020782 388.827759,359.006287 457.308411,359.107086 
	C461.298248,359.112946 463.180939,358.546967 463.169708,353.772919 
	C463.008148,285.125824 463.035522,216.478195 463.113861,147.830811 
	C463.117950,144.263855 462.266052,142.868805 458.379395,142.876389 
	C389.232788,143.011414 320.085938,143.010666 250.008804,143.002426 
	C189.183609,143.001038 128.358414,142.994598 67.533226,143.005295 
	C60.704395,143.006500 53.875580,143.104843 46.283020,143.011200 
	C45.510086,143.060272 44.737156,143.109329 43.085453,143.019043 
	C41.819115,143.019043 40.552780,143.019043 38.936474,143.019043 
	C38.936474,145.301666 38.936489,147.106018 38.936466,148.910370 
	C38.935764,209.935867 38.933613,270.961365 38.942039,331.986877 
	C38.942268,333.645172 39.056725,335.303436 38.954605,337.721436 
	C39.008949,338.492523 39.063290,339.263611 38.961288,340.946686 
	C39.015396,345.287750 39.069504,349.628815 38.961094,354.649231 
	C39.007912,355.108704 39.054729,355.568146 38.961090,356.898285 
z"/>
<path fill="#090A13" opacity="1.000000" stroke="none" 
	d="
M250.939117,143.039185 
	C320.085938,143.010666 389.232788,143.011414 458.379395,142.876389 
	C462.266052,142.868805 463.117950,144.263855 463.113861,147.830811 
	C463.035522,216.478195 463.008148,285.125824 463.169708,353.772919 
	C463.180939,358.546967 461.298248,359.112946 457.308411,359.107086 
	C388.827759,359.006287 320.346954,359.020782 251.426056,358.743469 
	C250.985947,358.476929 250.837509,358.004578 250.911133,357.571960 
	C250.989120,354.805267 250.993469,352.471191 251.463135,350.109619 
	C316.820190,350.073883 381.711914,350.065704 446.603638,350.057190 
	C447.934692,350.057037 449.504059,350.497040 450.538513,349.941986 
	C451.938904,349.190582 453.809052,347.758698 453.932404,346.470703 
	C454.326630,342.355652 454.007294,338.172241 454.000366,333.546814 
	C454.013153,277.047577 453.989075,221.016754 454.023315,164.525085 
	C454.098267,163.066208 454.142487,162.067749 454.127319,161.070175 
	C453.970215,150.738586 455.430939,151.965576 445.189453,151.960297 
	C382.795776,151.928085 320.402100,151.943314 258.008423,151.953735 
	C256.015594,151.954071 254.022766,152.073853 251.761642,152.080536 
	C251.314529,151.984619 251.135727,151.946106 250.981384,151.469131 
	C250.951172,148.684814 250.896469,146.338974 250.916077,143.759750 
	C250.990417,143.526367 250.939117,143.039185 250.939117,143.039185 
z"/>
<path fill="#EDEEF3" opacity="1.000000" stroke="none" 
	d="
M250.841751,143.993134 
	C250.896469,146.338974 250.951172,148.684814 250.739807,151.511200 
	C250.473724,151.991760 250.010544,152.149231 249.544434,152.079102 
	C182.162460,152.008987 115.246605,152.008987 48.094494,152.008987 
	C48.094494,218.123108 48.094494,283.820618 48.094494,350.012512 
	C50.054970,350.012512 51.839432,350.012543 53.623890,350.012543 
	C83.272591,350.012543 112.921303,349.996582 142.569992,350.016602 
	C178.712616,350.040955 214.855194,350.095551 250.997803,350.137085 
	C250.993469,352.471191 250.989120,354.805267 250.452789,357.570679 
	C182.301575,358.001343 114.682320,358.023041 47.063267,357.916687 
	C44.408379,357.912506 41.755413,356.685059 39.101547,356.027618 
	C39.054729,355.568146 39.007912,355.108704 39.290222,353.986145 
	C39.452110,348.893616 39.284874,344.464172 39.117634,340.034698 
	C39.063290,339.263611 39.008949,338.492523 39.287643,337.017212 
	C39.746765,334.334961 39.982376,332.356964 39.983025,330.378906 
	C40.002731,270.172485 40.027306,209.966003 39.924847,149.759735 
	C39.919151,146.414093 40.356319,143.985626 43.964222,143.158386 
	C44.737156,143.109329 45.510086,143.060272 46.994221,143.327118 
	C49.353577,143.761810 51.001709,143.984055 52.649895,143.984436 
	C118.713844,143.999863 184.777802,143.995209 250.841751,143.993134 
z"/>
<path fill="#ECEFFF" opacity="1.000000" stroke="none" 
	d="
M39.031319,356.462952 
	C41.755413,356.685059 44.408379,357.912506 47.063267,357.916687 
	C114.682320,358.023041 182.301575,358.001343 250.379150,358.003296 
	C250.837509,358.004578 250.985947,358.476929 250.952759,358.722046 
	C181.737640,358.976959 112.555710,358.999725 43.373913,358.908905 
	C41.902100,358.906982 40.431995,357.597687 39.031319,356.462952 
z"/>
<path fill="#ECEFFF" opacity="1.000000" stroke="none" 
	d="
M250.916077,143.759750 
	C184.777802,143.995209 118.713844,143.999863 52.649895,143.984436 
	C51.001709,143.984055 49.353577,143.761810 47.376091,143.400589 
	C53.875580,143.104843 60.704395,143.006500 67.533226,143.005295 
	C128.358414,142.994598 189.183609,143.001038 250.473969,143.020813 
	C250.939117,143.039185 250.990417,143.526367 250.916077,143.759750 
z"/>
<path fill="#ECEFFF" opacity="1.000000" stroke="none" 
	d="
M43.524837,143.088715 
	C40.356319,143.985626 39.919151,146.414093 39.924847,149.759735 
	C40.027306,209.966003 40.002731,270.172485 39.983025,330.378906 
	C39.982376,332.356964 39.746765,334.334961 39.369301,336.637360 
	C39.056725,335.303436 38.942268,333.645172 38.942039,331.986877 
	C38.933613,270.961365 38.935764,209.935867 38.936466,148.910370 
	C38.936489,147.106018 38.936474,145.301666 38.936474,143.019043 
	C40.552780,143.019043 41.819115,143.019043 43.524837,143.088715 
z"/>
<path fill="#ECEFFF" opacity="1.000000" stroke="none" 
	d="
M39.039459,340.490692 
	C39.284874,344.464172 39.452110,348.893616 39.371479,353.646484 
	C39.069504,349.628815 39.015396,345.287750 39.039459,340.490692 
z"/>
<path fill="#222D95" opacity="1.000000" stroke="none" 
	d="
M250.010544,152.149231 
	C250.010544,152.149231 250.473724,151.991760 250.715317,151.949677 
	C251.135727,151.946106 251.314529,151.984619 252.084335,152.329712 
	C254.655106,152.762543 256.634827,152.997925 258.614655,152.998932 
	C300.226776,153.020187 341.838867,153.015045 383.450989,153.014938 
	C404.589935,153.014893 425.730194,153.141174 446.866821,152.919510 
	C451.747772,152.868347 453.495300,154.516815 453.077057,159.270050 
	C452.912964,161.134857 453.642487,163.078293 453.965027,164.985931 
	C453.989075,221.016754 454.013153,277.047577 453.733643,333.849731 
	C453.283386,336.763428 453.127228,338.905212 452.991852,341.048309 
	C452.543915,348.137451 451.793488,348.762695 444.834778,348.074707 
	C443.349060,347.927795 441.838745,348.011230 440.339905,348.018463 
	C374.313507,348.337830 308.287384,348.778717 242.260590,348.948639 
	C180.129684,349.108521 117.998032,348.984619 55.866707,348.980988 
	C49.023125,348.980591 49.003277,348.966614 49.002567,341.964661 
	C48.996437,281.499054 48.997555,221.033463 48.997898,160.567871 
	C48.997940,153.019104 49.001690,153.016159 56.834503,153.016052 
	C119.132401,153.015213 181.430298,153.024033 243.728165,152.979141 
	C245.822495,152.977646 247.916428,152.438019 250.010544,152.149231 
M297.997986,246.980942 
	C297.997986,246.980942 298.046082,246.927216 298.012665,247.874329 
	C298.009399,257.537415 297.950531,267.201111 298.054688,276.863037 
	C298.073181,278.577057 298.770081,280.283752 299.711792,282.604828 
	C303.767181,282.604828 307.822601,282.604828 312.075775,282.604828 
	C312.075775,270.186157 312.324707,258.049072 311.991608,245.928009 
	C311.754089,237.285156 304.021759,231.496811 295.091980,232.301285 
	C288.190125,232.923050 282.556915,235.795700 277.878815,241.819382 
	C277.292908,238.774918 276.871552,236.585358 276.332184,233.782639 
	C272.353424,234.224625 268.664185,234.634445 264.425079,235.656723 
	C264.332611,250.658646 264.233978,265.660522 264.179901,280.662598 
	C264.178406,281.078918 264.654297,281.496918 265.375275,282.641449 
	C268.003815,282.764160 270.631256,282.929779 273.261200,282.998840 
	C276.615082,283.086914 278.252563,281.791107 278.090698,278.046570 
	C277.819733,271.778015 277.839569,265.480957 278.087494,259.209778 
	C278.435364,250.412048 282.691528,244.937180 290.550934,243.667221 
	C293.056488,244.765533 295.562012,245.863831 297.997986,246.980942 
M418.172943,283.662750 
	C418.449158,282.066040 418.940094,280.472534 418.963654,278.872101 
	C419.056641,272.553253 418.805176,266.224396 419.056335,259.914185 
	C419.337616,252.847198 420.122314,245.800369 420.409668,238.733444 
	C420.444824,237.868668 418.760956,236.934006 417.528290,235.339996 
	C413.636871,234.710510 409.745453,234.081024 405.190796,233.344254 
	C405.030029,235.682129 404.811737,237.416214 404.807404,239.150818 
	C404.777008,251.271194 404.681641,263.393005 404.829010,275.511658 
	C404.927277,283.590820 404.580658,291.431000 397.578278,297.697815 
	C400.457458,300.225922 402.939575,302.405365 405.615509,304.754974 
	C413.934143,300.607178 416.905609,293.125732 418.172943,283.662750 
M83.894928,218.655441 
	C83.952499,219.114838 84.010071,219.574249 83.899681,220.951843 
	C83.899681,241.540100 83.899681,262.128357 83.899681,282.678070 
	C88.325157,282.678070 92.060806,282.678070 95.972420,282.678070 
	C95.972420,267.560974 95.972420,252.762039 96.674103,237.732544 
	C101.443924,244.079193 106.256897,250.393997 110.971107,256.781677 
	C115.454453,262.856537 119.834564,269.007629 124.452415,275.391083 
	C133.749374,262.622040 142.675980,250.361664 152.338379,237.090683 
	C152.782944,239.366211 153.033173,240.647003 152.673340,242.520279 
	C152.481888,252.260498 152.213760,262.000183 152.143768,271.741272 
	C152.121582,274.829498 152.627930,277.921570 153.236435,281.755249 
	C157.656204,281.789642 162.075974,281.824036 167.241425,281.451813 
	C167.493256,280.355560 167.963104,279.259705 167.964935,278.163025 
	C168.006607,253.145874 168.015121,228.128601 167.948700,203.111542 
	C167.945068,201.738281 167.238480,200.366882 166.589188,198.614120 
	C166.346481,198.434113 165.989731,198.050034 165.881439,198.110535 
	C165.480484,198.334610 165.090836,198.654526 164.821884,199.028305 
	C152.420212,216.263123 140.034317,233.509293 127.636551,250.746918 
	C126.715912,252.026993 125.720940,253.253632 124.645493,254.654968 
	C113.522507,239.146057 102.707008,224.065872 91.820961,208.473816 
	C91.564560,208.255402 91.308167,208.036972 90.949417,207.249527 
	C90.566811,206.820786 90.184204,206.392059 89.752251,205.494675 
	C89.586945,205.203568 89.341454,205.019211 88.953896,204.481552 
	C88.854301,204.149734 88.634338,203.951462 88.072487,203.223160 
	C86.923355,201.627060 85.774216,200.030975 84.065659,197.657867 
	C84.065659,203.573669 84.065659,208.270279 83.892387,213.643448 
	C83.950546,214.101685 84.008705,214.559937 83.901421,215.749008 
	C83.957077,216.491791 84.012733,217.234558 83.894928,218.655441 
M197.696548,237.124268 
	C195.023514,241.051651 191.392181,244.636047 189.842529,248.965530 
	C182.956512,268.204102 196.119080,285.522675 215.538559,282.753235 
	C220.283539,282.076538 224.687439,279.008057 229.173889,277.071320 
	C229.425064,278.753082 229.731827,280.807190 230.013901,282.695862 
	C234.278580,282.695862 238.033386,282.695862 241.903687,282.695862 
	C241.903687,266.470367 241.903687,250.559967 241.903687,234.288010 
	C236.884003,234.653458 231.402420,231.778641 228.524780,238.233109 
	C216.417648,230.519394 208.508652,230.164948 197.696548,237.124268 
M335.703613,272.702484 
	C342.630829,282.114471 352.384369,284.191376 363.174713,282.851227 
	C374.961426,281.387299 383.254974,272.226837 384.450745,259.964020 
	C385.609772,248.077484 379.106415,237.713303 368.042572,233.814880 
	C356.810303,229.857101 344.298004,232.898727 337.047363,241.349533 
	C330.135437,249.405548 329.450439,261.314484 335.703613,272.702484 
M417.672241,214.356186 
	C416.605743,213.332703 415.557037,211.472855 414.469269,211.449707 
	C411.708588,211.390930 408.347107,211.369537 406.352509,212.850311 
	C404.882568,213.941605 403.984711,218.380081 404.974487,219.628555 
	C406.627686,221.713898 410.070862,223.641068 412.621338,223.476593 
	C417.130402,223.185852 418.770782,219.580429 417.672241,214.356186 
z"/>
<path fill="#282E78" opacity="1.000000" stroke="none" 
	d="
M249.544434,152.079102 
	C247.916428,152.438019 245.822495,152.977646 243.728165,152.979141 
	C181.430298,153.024033 119.132401,153.015213 56.834503,153.016052 
	C49.001690,153.016159 48.997940,153.019104 48.997898,160.567871 
	C48.997555,221.033463 48.996437,281.499054 49.002567,341.964661 
	C49.003277,348.966614 49.023125,348.980591 55.866707,348.980988 
	C117.998032,348.984619 180.129684,349.108521 242.260590,348.948639 
	C308.287384,348.778717 374.313507,348.337830 440.339905,348.018463 
	C441.838745,348.011230 443.349060,347.927795 444.834778,348.074707 
	C451.793488,348.762695 452.543915,348.137451 452.991852,341.048309 
	C453.127228,338.905212 453.283386,336.763428 453.696777,334.318146 
	C454.007294,338.172241 454.326630,342.355652 453.932404,346.470703 
	C453.809052,347.758698 451.938904,349.190582 450.538513,349.941986 
	C449.504059,350.497040 447.934692,350.057037 446.603638,350.057190 
	C381.711914,350.065704 316.820190,350.073883 251.463135,350.109589 
	C214.855194,350.095551 178.712616,350.040955 142.569992,350.016602 
	C112.921303,349.996582 83.272591,350.012543 53.623890,350.012543 
	C51.839432,350.012543 50.054970,350.012512 48.094494,350.012512 
	C48.094494,283.820618 48.094494,218.123108 48.094494,152.008987 
	C115.246605,152.008987 182.162460,152.008987 249.544434,152.079102 
z"/>
<path fill="#282E78" opacity="1.000000" stroke="none" 
	d="
M454.023346,164.525085 
	C453.642487,163.078293 452.912964,161.134857 453.077057,159.270050 
	C453.495300,154.516815 451.747772,152.868347 446.866821,152.919510 
	C425.730194,153.141174 404.589935,153.014893 383.450989,153.014938 
	C341.838867,153.015045 300.226776,153.020187 258.614655,152.998932 
	C256.634827,152.997925 254.655106,152.762543 252.352631,152.387131 
	C254.022766,152.073853 256.015594,151.954071 258.008423,151.953735 
	C320.402100,151.943314 382.795776,151.928085 445.189453,151.960297 
	C455.430939,151.965576 453.970215,150.738586 454.127319,161.070175 
	C454.142487,162.067749 454.098267,163.066208 454.023346,164.525085 
z"/>
<path fill="#EBECF1" opacity="1.000000" stroke="none" 
	d="
M84.067642,220.033646 
	C84.010071,219.574249 83.952499,219.114838 84.297333,218.259155 
	C84.488785,216.914642 84.277824,215.966415 84.066864,215.018173 
	C84.008705,214.559937 83.950546,214.101685 84.230164,213.034943 
	C85.809967,209.579895 87.051987,206.733322 88.293991,203.886749 
	C88.634338,203.951462 88.854301,204.149734 89.074303,204.911591 
	C89.343979,205.600632 89.546272,205.807861 89.801598,205.963318 
	C90.184204,206.392059 90.566811,206.820786 91.085709,207.764709 
	C91.376366,208.580414 91.599533,208.815674 91.891502,208.985687 
	C102.707008,224.065872 113.522507,239.146057 124.645493,254.654968 
	C125.720940,253.253632 126.715912,252.026993 127.636551,250.746918 
	C140.034317,233.509293 152.420212,216.263123 164.821884,199.028305 
	C165.090836,198.654526 165.480484,198.334610 165.881439,198.110535 
	C165.989731,198.050034 166.346481,198.434113 166.596771,199.257889 
	C166.568161,227.220596 166.531952,254.539520 166.495743,281.858459 
	C162.075974,281.824036 157.656204,281.789642 153.215332,280.993622 
	C153.223953,267.463928 153.253677,254.695862 153.283401,241.927795 
	C153.033173,240.647003 152.782944,239.366211 152.338379,237.090683 
	C142.675980,250.361664 133.749374,262.622040 124.452415,275.391083 
	C119.834564,269.007629 115.454453,262.856537 110.971107,256.781677 
	C106.256897,250.393997 101.443924,244.079193 96.091614,237.627441 
	C94.764107,238.451462 93.366089,239.385635 93.373245,240.308945 
	C93.462952,251.897446 93.717979,263.485413 94.022728,275.071075 
	C94.101448,278.063934 93.855904,280.113647 89.896706,280.102478 
	C85.726082,280.090698 85.982323,277.641449 85.987404,274.866974 
	C86.015999,259.263611 86.091080,243.659134 85.913307,228.057739 
	C85.882751,225.376389 84.711800,222.708008 84.067642,220.033646 
z"/>
<path fill="#EBEDF3" opacity="1.000000" stroke="none" 
	d="
M198.000122,236.921997 
	C208.508652,230.164948 216.417648,230.519394 228.524780,238.233109 
	C231.402420,231.778641 236.884003,234.653458 241.903687,234.288010 
	C241.903687,250.559967 241.903687,266.470367 241.903687,282.695862 
	C238.033386,282.695862 234.278580,282.695862 230.013901,282.695862 
	C229.731827,280.807190 229.425064,278.753082 229.173889,277.071320 
	C224.687439,279.008057 220.283539,282.076538 215.538559,282.753235 
	C196.119080,285.522675 182.956512,268.204102 189.842529,248.965530 
	C191.392181,244.636047 195.023514,241.051651 198.000122,236.921997 
M227.939484,266.204712 
	C228.472198,262.990051 229.377991,259.785034 229.461685,256.558716 
	C229.648804,249.347473 225.549362,244.316071 218.957962,243.036423 
	C211.194092,241.529144 204.675964,244.894348 202.048172,251.766663 
	C199.415192,258.652557 201.958710,266.695770 208.079056,270.601501 
	C214.430191,274.654541 223.547897,273.053925 227.939484,266.204712 
z"/>
<path fill="#EBECF3" opacity="1.000000" stroke="none" 
	d="
M335.490906,272.404663 
	C329.450439,261.314484 330.135437,249.405548 337.047363,241.349533 
	C344.298004,232.898727 356.810303,229.857101 368.042572,233.814880 
	C379.106415,237.713303 385.609772,248.077484 384.450745,259.964020 
	C383.254974,272.226837 374.961426,281.387299 363.174713,282.851227 
	C352.384369,284.191376 342.630829,282.114471 335.490906,272.404663 
M344.050171,256.748383 
	C344.119690,258.073639 344.049774,259.423767 344.281433,260.720062 
	C345.750519,268.940887 352.793549,274.150452 360.373901,272.690430 
	C368.145660,271.193573 372.858673,263.505280 371.370941,254.751099 
	C369.951172,246.396729 363.330750,241.366959 355.341339,242.923416 
	C348.345764,244.286224 345.292816,249.365952 344.050171,256.748383 
z"/>
<path fill="#EAEBF2" opacity="1.000000" stroke="none" 
	d="
M290.026886,243.260422 
	C282.691528,244.937180 278.435364,250.412048 278.087494,259.209778 
	C277.839569,265.480957 277.819733,271.778015 278.090698,278.046570 
	C278.252563,281.791107 276.615082,283.086914 273.261200,282.998840 
	C270.631256,282.929779 268.003815,282.764160 265.232361,281.825867 
	C265.051270,265.688293 265.013092,250.366272 264.974915,235.044250 
	C268.664185,234.634445 272.353424,234.224625 276.332184,233.782639 
	C276.871552,236.585358 277.292908,238.774918 277.878815,241.819382 
	C282.556915,235.795700 288.190125,232.923050 295.091980,232.301285 
	C304.021759,231.496811 311.754089,237.285156 311.991608,245.928009 
	C312.324707,258.049072 312.075775,270.186157 312.075775,282.604828 
	C307.822601,282.604828 303.767181,282.604828 299.560760,281.911682 
	C299.447113,271.804657 299.570190,262.389709 299.453766,252.977753 
	C299.428741,250.955414 298.538025,248.943771 298.046082,246.927216 
	C298.046082,246.927216 297.997986,246.980942 297.965332,246.623093 
	C295.297424,245.263641 292.662140,244.262039 290.026886,243.260422 
z"/>
<path fill="#E8EAF1" opacity="1.000000" stroke="none" 
	d="
M417.435577,284.198883 
	C416.905609,293.125732 413.934143,300.607178 405.615509,304.754974 
	C402.939575,302.405365 400.457458,300.225922 397.578278,297.697815 
	C404.580658,291.431000 404.927277,283.590820 404.829010,275.511658 
	C404.681641,263.393005 404.777008,251.271194 404.807404,239.150818 
	C404.811737,237.416214 405.030029,235.682129 405.190796,233.344254 
	C409.745453,234.081024 413.636871,234.710510 417.578186,236.137177 
	C417.563904,252.689209 417.499725,268.444061 417.435577,284.198883 
z"/>
<path fill="#ECEFFD" opacity="1.000000" stroke="none" 
	d="
M83.983658,220.492737 
	C84.711800,222.708008 85.882751,225.376389 85.913307,228.057739 
	C86.091080,243.659134 86.015999,259.263611 85.987404,274.866974 
	C85.982323,277.641449 85.726082,280.090698 89.896706,280.102478 
	C93.855904,280.113647 94.101448,278.063934 94.022728,275.071075 
	C93.717979,263.485413 93.462952,251.897446 93.373245,240.308945 
	C93.366089,239.385635 94.764107,238.451462 95.740768,237.742706 
	C95.972420,252.762039 95.972420,267.560974 95.972420,282.678070 
	C92.060806,282.678070 88.325157,282.678070 83.899681,282.678070 
	C83.899681,262.128357 83.899681,241.540100 83.983658,220.492737 
z"/>
<path fill="#E7E9F4" opacity="1.000000" stroke="none" 
	d="
M417.800598,214.731018 
	C418.770782,219.580429 417.130402,223.185852 412.621338,223.476593 
	C410.070862,223.641068 406.627686,221.713898 404.974487,219.628555 
	C403.984711,218.380081 404.882568,213.941605 406.352509,212.850311 
	C408.347107,211.369537 411.708588,211.390930 414.469269,211.449707 
	C415.557037,211.472855 416.605743,213.332703 417.800598,214.731018 
z"/>
<path fill="#272E81" opacity="1.000000" stroke="none" 
	d="
M166.868591,281.655151 
	C166.531952,254.539520 166.568161,227.220596 166.731720,199.448135 
	C167.238480,200.366882 167.945068,201.738281 167.948700,203.111542 
	C168.015121,228.128601 168.006607,253.145874 167.964935,278.163025 
	C167.963104,279.259705 167.493256,280.355560 166.868591,281.655151 
z"/>
<path fill="#4C5397" opacity="1.000000" stroke="none" 
	d="
M152.978363,242.224030 
	C153.253677,254.695862 153.223953,267.463928 153.043320,280.621948 
	C152.627930,277.921570 152.121582,274.829498 152.143768,271.741272 
	C152.213760,262.000183 152.481888,252.260498 152.978363,242.224030 
z"/>
<path fill="#2B3086" opacity="1.000000" stroke="none" 
	d="
M298.029358,247.400772 
	C298.538025,248.943771 299.428741,250.955414 299.453766,252.977753 
	C299.570190,262.389709 299.447113,271.804657 299.281677,281.606201 
	C298.770081,280.283752 298.073181,278.577057 298.054688,276.863037 
	C297.950531,267.201111 298.009399,257.537415 298.029358,247.400772 
z"/>
<path fill="#232E82" opacity="1.000000" stroke="none" 
	d="
M417.804260,283.930817 
	C417.499725,268.444061 417.563904,252.689209 417.750916,236.483063 
	C418.760956,236.934006 420.444824,237.868668 420.409668,238.733444 
	C420.122314,245.800369 419.337616,252.847198 419.056335,259.914185 
	C418.805176,266.224396 419.056641,272.553253 418.963654,278.872101 
	C418.940094,280.472534 418.449158,282.066040 417.804260,283.930817 
z"/>
<path fill="#272E7D" opacity="1.000000" stroke="none" 
	d="
M264.700012,235.350494 
	C265.013092,250.366272 265.051270,265.688293 264.998535,281.462219 
	C264.654297,281.496918 264.178406,281.078918 264.179901,280.662598 
	C264.233978,265.660522 264.332611,250.658646 264.700012,235.350494 
z"/>
<path fill="#ECEFFD" opacity="1.000000" stroke="none" 
	d="
M88.183243,203.554962 
	C87.051987,206.733322 85.809967,209.579895 84.316803,212.696686 
	C84.065659,208.270279 84.065659,203.573669 84.065659,197.657867 
	C85.774216,200.030975 86.923355,201.627060 88.183243,203.554962 
z"/>
<path fill="#2B3086" opacity="1.000000" stroke="none" 
	d="
M290.288910,243.463821 
	C292.662140,244.262039 295.297424,245.263641 298.000122,246.613678 
	C295.562012,245.863831 293.056488,244.765533 290.288910,243.463821 
z"/>
<path fill="#ECEFFD" opacity="1.000000" stroke="none" 
	d="
M83.984146,215.383591 
	C84.277824,215.966415 84.488785,216.914642 84.384064,217.920105 
	C84.012733,217.234558 83.957077,216.491791 83.984146,215.383591 
z"/>
<path fill="#ECEFFD" opacity="1.000000" stroke="none" 
	d="
M91.856232,208.729752 
	C91.599533,208.815674 91.376366,208.580414 91.136887,208.049225 
	C91.308167,208.036972 91.564560,208.255402 91.856232,208.729752 
z"/>
<path fill="#ECEFFD" opacity="1.000000" stroke="none" 
	d="
M89.776924,205.729004 
	C89.546272,205.807861 89.343979,205.600632 89.105247,205.141632 
	C89.341454,205.019211 89.586945,205.203568 89.776924,205.729004 
z"/>
<path fill="#263093" opacity="1.000000" stroke="none" 
	d="
M227.758789,266.539246 
	C223.547897,273.053925 214.430191,274.654541 208.079056,270.601501 
	C201.958710,266.695770 199.415192,258.652557 202.048172,251.766663 
	C204.675964,244.894348 211.194092,241.529144 218.957962,243.036423 
	C225.549362,244.316071 229.648804,249.347473 229.461685,256.558716 
	C229.377991,259.785034 228.472198,262.990051 227.758789,266.539246 
z"/>
<path fill="#263092" opacity="1.000000" stroke="none" 
	d="
M344.081482,256.331482 
	C345.292816,249.365952 348.345764,244.286224 355.341339,242.923416 
	C363.330750,241.366959 369.951172,246.396729 371.370941,254.751099 
	C372.858673,263.505280 368.145660,271.193573 360.373901,272.690430 
	C352.793549,274.150452 345.750519,268.940887 344.281433,260.720062 
	C344.049774,259.423767 344.119690,258.073639 344.081482,256.331482 
z"/>
</svg>